<svg width="300" height="300" viewBox="0 0 300 300" fill="none" xmlns="http://www.w3.org/2000/svg">
<rect width="300" height="300" rx="150" fill="white"/>
<path d="M70 67.5811H230V232.856H70V67.5811Z" fill="#240446"/>
<path d="M70 67.5811H230V225.823H70V67.5811Z" fill="#077BFF"/>
<path d="M70 67.5811H230V114.175H70V67.5811Z" fill="#240446"/>
<path d="M70 67.5811H230V108.021H70V67.5811Z" fill="#52AFFF"/>
<path d="M100.77 50H115.715V100.989H100.77V50Z" fill="#240446"/>
<path d="M100.77 50H115.715V96.5934H100.77V50Z" fill="#A4E2FF"/>
<path d="M184.286 50H199.231V100.989H184.286V50Z" fill="#240446"/>
<path d="M184.286 50H199.231V96.5934H184.286V50Z" fill="#A4E2FF"/>
<path d="M84.0666 158.133H106.045V184.507H84.0666V158.133Z" fill="#240446"/>
<path d="M84.0666 158.133H106.045V180.111H84.0666V158.133Z" fill="#A4E2FF"/>
<path d="M84.0666 194.175H106.045V220.548H84.0666V194.175Z" fill="#240446"/>
<path d="M84.0666 194.175H106.045V216.153H84.0666V194.175Z" fill="#A4E2FF"/>
<path d="M121.868 122.089H143.846V148.462H121.868V122.089Z" fill="#240446"/>
<path d="M121.868 122.089H143.846V144.067H121.868V122.089Z" fill="#A4E2FF"/>
<path d="M121.868 158.133H143.846V184.507H121.868V158.133Z" fill="#240446"/>
<path d="M121.868 158.133H143.846V180.111H121.868V158.133Z" fill="#A4E2FF"/>
<path d="M121.868 194.175H143.846V220.548H121.868V194.175Z" fill="#240446"/>
<path d="M121.868 194.175H143.846V216.153H121.868V194.175Z" fill="#A4E2FF"/>
<path d="M159.67 122.089H181.648V148.462H159.67V122.089Z" fill="#240446"/>
<path d="M159.67 122.089H181.648V144.067H159.67V122.089Z" fill="#A4E2FF"/>
<path d="M159.67 158.133H181.648V184.507H159.67V158.133Z" fill="#240446"/>
<path d="M159.67 158.133H181.648V180.111H159.67V158.133Z" fill="#A4E2FF"/>
<path d="M159.67 194.175H181.648V220.548H159.67V194.175Z" fill="#240446"/>
<path d="M159.67 194.175H181.648V216.153H159.67V194.175Z" fill="#F35375"/>
<path d="M197.473 122.089H219.451V148.462H197.473V122.089Z" fill="#240446"/>
<path d="M197.473 122.089H219.451V144.067H197.473V122.089Z" fill="#A4E2FF"/>
<path d="M197.473 158.133H219.451V184.507H197.473V158.133Z" fill="#240446"/>
<path d="M197.473 158.133H219.451V180.111H197.473V158.133Z" fill="#A4E2FF"/>
</svg>
